Coordinates
version=1
nRows=8
nColumns=36
inDegrees=yes

Units are S.I. units (second, meters, Newtons, ...)
If the header above contains a line with 'inDegrees', this indicates whether rotational values are in degrees (yes) or radians (no).

endheader
time	pelvis_tilt	pelvis_list	pelvis_rotation	pelvis_tx	pelvis_ty	pelvis_tz	hip_flexion_r	hip_adduction_r	hip_rotation_r	knee_angle_r	knee_angle_r_beta	ankle_angle_r	subtalar_angle_r	mtp_angle_r	hip_flexion_l	hip_adduction_l	hip_rotation_l	knee_angle_l	knee_angle_l_beta	ankle_angle_l	subtalar_angle_l	mtp_angle_l	lumbar_extension	lumbar_bending	lumbar_rotation	arm_flex_r	arm_add_r	arm_rot_r	elbow_flex_r	pro_sup_r	arm_flex_l	arm_add_l	arm_rot_l	elbow_flex_l	pro_sup_l
      1.93333330	    -26.72898716	     -3.29619918	      5.57948279	      0.71137468	      0.82023177	      0.04037080	     65.48822489	    -13.15998520	     -9.07623875	     59.60085168	      1.04023110	     30.42757163	     -0.71004319	     -7.49999987	     65.51425404	    -12.40128975	     -6.94092458	     56.94791125	      0.99392855	     29.14003828	     10.19089851	     -7.49999987	    -15.75298053	     -1.69316361	     -0.83427072	     60.95275675	      9.84066736	     71.54776923	    126.14935708	     95.95764518	     56.53453659	      8.27329659	     78.23440429	    126.96132647	     90.16121703
      1.95000000	    -27.12168437	     -3.25364312	      5.70566001	      0.70704457	      0.80542812	      0.04311335	     67.71854725	    -13.71282981	     -8.85287123	     62.39131590	      1.08893389	     31.33903978	     -0.39589015	     -7.49999987	     67.66049810	    -12.51651923	     -6.64566730	     59.43787002	      1.03738653	     30.03359474	     10.55709827	     -7.49999987	    -17.54511391	     -1.77463727	     -0.86030109	     61.85369054	      9.80969183	     71.62699039	    125.75626531	     94.89431411	     58.70208000	      7.94989048	     78.00404936	    126.21592041	     89.30626275
      1.96666670	    -27.95144558	     -3.08208217	      5.56575269	      0.70058887	      0.78890062	      0.04116207	     70.89713062	    -14.43595792	     -8.44981417	     65.67432072	      1.14623313	     32.40028139	      0.44859079	     -7.49999987	     70.72421599	    -12.66707476	     -6.31833978	     62.65205234	      1.09348460	     31.03406556	     10.19127560	     -7.49999987	    -18.52904330	     -2.10584119	     -0.90330470	     63.25510888	      9.84446176	     72.19705117	    125.74136120	     96.52283107	     60.71291556	      7.98622999	     79.18351069	    125.49146920	     93.10883101
      1.98333330	    -28.49711622	     -3.04359727	      5.42705343	      0.69500168	      0.78222700	      0.05145608	     73.39258174	    -14.54546253	     -8.16648033	     68.22522259	      1.19075477	     33.07643941	      1.02864076	     -7.49999987	     73.11844347	    -13.20750489	     -6.04464280	     65.07224067	      1.13572485	     31.25568859	     10.27713396	     -7.49999987	    -19.78142109	     -2.59746182	     -0.78078195	     64.23447931	     10.01848353	     72.11966997	    125.33874511	     94.83474863	     63.01125201	      7.52813316	     79.10483755	    125.65771591	     91.59950639
      2.00000000	    -29.10825015	     -2.72771334	      4.78055335	      0.69025204	      0.77156689	      0.04243122	     75.97463222	    -14.70973023	     -7.52849054	     70.42309689	      1.22911491	     33.08560296	      1.55285351	     -7.49999987	     75.50789339	    -13.38981932	     -5.78151362	     67.65692330	      1.18083607	     31.65888685	      9.78874596	     -7.49999987	    -21.10175720	     -3.07342320	     -0.93512585	     65.91048643	     10.15277857	     72.93314127	    125.22655863	     93.01098326	     64.71996614	      7.61516157	     80.07802827	    125.21941072	     89.98059479
      2.01666670	    -29.59412699	     -2.23694403	      4.36234990	      0.68082486	      0.76590906	      0.04308730	     78.22940517	    -14.92135686	     -6.67931521	     71.82643007	      1.25360769	     32.76924697	      2.00741368	     -7.49999987	     77.42540486	    -13.19278831	     -5.67348108	     69.39908286	      1.21124249	     31.48252479	      8.88945652	     -7.49999987	    -22.89550341	     -3.77593993	     -0.93117292	     67.81051624	      9.83820669	     73.08356946	    125.40986700	     93.66684033	     67.18063494	      7.74610640	     79.86406663	    124.94696015	     90.62015055
      2.03333330	    -29.85521090	     -2.10805178	      3.95943345	      0.68026902	      0.74271820	      0.05124544	     80.78282354	    -14.87677585	     -6.14418191	     74.50073654	      1.30028315	     33.72202662	      2.33084825	     -7.49999987	     80.02974582	    -13.65965724	     -4.83232042	     72.62023828	      1.26746226	     32.43419193	      8.58622440	     -7.49999987	    -24.30646462	     -4.21612294	     -0.98964000	     69.18293598	      9.98867395	     72.88647084	    125.56876659	     92.17105648	     69.46124418	      7.20372047	     78.89226589	    125.28184403	     89.11514544
      2.05000000	    -30.79433478	     -2.13464762	      3.49214065	      0.67062991	      0.72801805	      0.05138890	     83.89712842	    -14.58361262	     -5.61518016	     76.62789854	      1.33740913	     33.99303481	      2.15512145	     -7.49999987	     83.68346622	    -13.99491631	     -3.87771050	     75.77965407	      1.32260447	     32.90611178	      7.40448111	     -7.49999987	    -24.67366233	     -4.43359712	     -1.05254305	     70.53257635	     10.19561947	     73.13298254	    126.00298549	     92.66022448	     70.90815799	      7.01403299	     78.07848191	    126.11815265	     89.53920543
